name sv09_filtered_grf.mot
datacolumns 37
datarows 10
range 1.211500 1.216000
endheader
time	1_ground_force_vx	1_ground_force_vy	1_ground_force_vz	1_ground_force_px	1_ground_force_py	1_ground_force_pz	1_ground_torque_x	1_ground_torque_y	1_ground_torque_z	2_ground_force_vx	2_ground_force_vy	2_ground_force_vz	2_ground_force_px	2_ground_force_py	2_ground_force_pz	2_ground_torque_x	2_ground_torque_y	2_ground_torque_z	3_ground_force_vx	3_ground_force_vy	3_ground_force_vz	3_ground_force_px	3_ground_force_py	3_ground_force_pz	3_ground_torque_x	3_ground_torque_y	3_ground_torque_z	4_ground_force_vx	4_ground_force_vy	4_ground_force_vz	4_ground_force_px	4_ground_force_py	4_ground_force_pz	4_ground_torque_x	4_ground_torque_y	4_ground_torque_z
            1.211500	          -12.604320	          418.411939	          -15.239070	            0.165326	            0.000000	            0.298785	           -0.250870	            8.327862	           -0.303311	           76.725842	          482.064455	           -2.325612	           -0.216922	            0.000000	            0.267838	           -0.496137	           -3.117202	            0.015038	           17.001135	            0.310455	           -1.588332	            0.381343	            1.022365	            1.096170	           -0.094267	           -0.001721	            0.008807	          -12.863406	            1.609876	            0.014968	           -0.492022	            1.020545	            1.098986	            0.016155	           -0.002022	           -0.000019
            1.212000	          -12.661804	          412.587102	          -14.154024	            0.165532	            0.000000	            0.297907	           -0.251421	            8.192605	           -0.281052	           76.846638	          483.619830	           -1.878895	           -0.216854	            0.000000	            0.267829	           -0.497268	           -3.129461	            0.012158	           16.974215	            0.308157	           -1.600526	            0.381347	            1.022364	            1.096169	           -0.093983	           -0.001706	            0.008862	          -12.858186	            1.609867	            0.015238	           -0.492032	            1.020552	            1.098986	            0.015969	           -0.001999	           -0.000019
            1.212500	          -12.744018	          406.584919	          -12.903561	            0.165744	            0.000000	            0.296914	           -0.252508	            8.056016	           -0.255669	           76.973300	          484.994241	           -1.403972	           -0.216790	            0.000000	            0.267784	           -0.497824	           -3.136692	            0.009080	           16.947779	            0.305611	           -1.612614	            0.381351	            1.022363	            1.096169	           -0.093718	           -0.001690	            0.008917	          -12.853915	            1.608306	            0.015580	           -0.492042	            1.020559	            1.098986	            0.015761	           -0.001972	           -0.000019
            1.213000	          -12.848742	          400.433604	          -11.498661	            0.165960	            0.000000	            0.295807	           -0.254087	            7.918684	           -0.227389	           77.105576	          486.187859	           -0.900757	           -0.216732	            0.000000	            0.267704	           -0.497807	           -3.138913	            0.005815	           16.921760	            0.302831	           -1.624663	            0.381356	            1.022362	            1.096168	           -0.093474	           -0.001673	            0.008974	          -12.850582	            1.605158	            0.015967	           -0.492051	            1.020564	            1.098987	            0.015533	           -0.001940	           -0.000019
            1.213500	          -12.973583	          394.161234	           -9.951291	            0.166181	            0.000000	            0.294588	           -0.256113	            7.781193	           -0.196450	           77.243083	          487.201792	           -0.369165	           -0.216678	            0.000000	            0.267587	           -0.497222	           -3.136171	            0.002376	           16.896110	            0.299856	           -1.636425	            0.381361	            1.022362	            1.096168	           -0.093252	           -0.001655	            0.009032	          -12.848159	            1.600403	            0.016291	           -0.492060	            1.020570	            1.098987	            0.015289	           -0.001904	           -0.000019
            1.214000	          -13.116015	          387.795522	           -8.274284	            0.166405	            0.000000	            0.293261	           -0.258539	            7.644110	           -0.163100	           77.385313	          488.038076	            0.190883	           -0.216629	            0.000000	            0.267435	           -0.496074	           -3.128539	           -0.001224	           16.870764	            0.296725	           -1.647815	            0.381365	            1.022361	            1.096167	           -0.093053	           -0.001637	            0.009089	          -12.846605	            1.594031	            0.016494	           -0.492070	            1.020575	            1.098988	            0.015031	           -0.001865	           -0.000019
            1.214500	          -13.273397	          381.363598	           -6.481205	            0.166632	            0.000000	            0.291829	           -0.261316	            7.507984	           -0.127597	           77.531639	          488.699648	            0.779454	           -0.216585	            0.000000	            0.267247	           -0.494369	           -3.116121	           -0.004970	           16.845650	            0.293488	           -1.658748	            0.381370	            1.022361	            1.096167	           -0.092876	           -0.001618	            0.009145	          -12.845867	            1.586046	            0.016528	           -0.492079	            1.020581	            1.098988	            0.014761	           -0.001822	           -0.000019
            1.215000	          -13.443011	          374.891812	           -4.586205	            0.166861	            0.000000	            0.290295	           -0.264396	            7.373337	           -0.090201	           77.681331	          489.190313	            1.396595	           -0.216546	            0.000000	            0.267025	           -0.492115	           -3.099044	           -0.008847	           16.820693	            0.290203	           -1.669145	            0.381374	            1.022360	            1.096166	           -0.092724	           -0.001600	            0.009201	          -12.845880	            1.576465	            0.016354	           -0.492088	            1.020586	            1.098989	            0.014481	           -0.001777	           -0.000018
            1.215500	          -13.622096	          368.405553	           -2.603886	            0.167092	            0.000000	            0.288665	           -0.267729	            7.240658	           -0.051177	           77.833564	          489.514708	            2.042329	           -0.216512	            0.000000	            0.266768	           -0.489321	           -3.077462	           -0.012840	           16.795796	            0.286932	           -1.679103	            0.381379	            1.022360	            1.096166	           -0.092596	           -0.001582	            0.009257	          -12.846567	            1.565322	            0.015920	           -0.492096	            1.020589	            1.098990	            0.014193	           -0.001729	           -0.000018
            1.216000	          -13.807872	          361.929083	           -0.549150	            0.167323	            0.000000	            0.286944	           -0.271267	            7.110404	           -0.010789	           77.987440	          489.678252	            2.716644	           -0.216482	            0.000000	            0.266478	           -0.485998	           -3.051551	           -0.016929	           16.770899	            0.283750	           -1.688383	            0.381384	            1.022360	            1.096165	           -0.092494	           -0.001565	            0.009312	          -12.847843	            1.552661	            0.015231	           -0.492103	            1.020592	            1.098992	            0.013899	           -0.001680	           -0.000016
